<svg width="44" height="44" viewBox="0 0 44 44" fill="none" xmlns="http://www.w3.org/2000/svg">
<path d="M20.4238 2.66284C21.3375 1.93067 22.6371 1.93051 23.5508 2.66284L24.3506 3.30444C25.6123 4.3159 27.2555 4.72107 28.8428 4.41187L29.8496 4.21558C30.9991 3.99167 32.1505 4.59549 32.6191 5.6687L33.0293 6.60913C33.6765 8.09095 34.9431 9.21274 36.4922 9.67651L37.4746 9.97046C38.5965 10.3064 39.3348 11.3765 39.251 12.5447L39.1777 13.5671C39.062 15.1801 39.6622 16.7627 40.8184 17.8933L41.5518 18.6101C42.3889 19.4288 42.5455 20.7193 41.9287 21.7146L41.3877 22.5867C40.5358 23.9611 40.3318 25.6411 40.8301 27.1794L41.1465 28.155C41.5073 29.2691 41.046 30.4842 40.0371 31.0789L39.1543 31.5994C37.7612 32.4204 36.7991 33.8132 36.5254 35.407L36.3525 36.4177C36.1543 37.5719 35.1813 38.4342 34.0117 38.4919L32.9873 38.5427C31.3722 38.6223 29.8736 39.4081 28.8906 40.6921L28.2676 41.5066C27.5557 42.4365 26.293 42.7472 25.2305 42.2546L24.2998 41.824C22.8327 41.144 21.1409 41.1439 19.6738 41.824L18.7432 42.2546C17.6807 42.7471 16.4189 42.4364 15.707 41.5066L15.084 40.6921C14.101 39.4082 12.6024 38.6224 10.9873 38.5427L9.96289 38.4919C8.79315 38.4343 7.82028 37.572 7.62207 36.4177L7.44824 35.407C7.1745 33.8133 6.21343 32.4204 4.82031 31.5994L3.93652 31.0789C2.92769 30.4842 2.46726 29.2691 2.82812 28.155L3.14355 27.1794C3.64189 25.641 3.43794 23.9611 2.58594 22.5867L2.0459 21.7146C1.42895 20.7192 1.58555 19.4289 2.42285 18.6101L3.15625 17.8933C4.31234 16.7627 4.91255 15.1801 4.79688 13.5671L4.72266 12.5447C4.63888 11.3765 5.37804 10.3064 6.5 9.97046L7.48242 9.67651C9.0314 9.21266 10.2982 8.09093 10.9453 6.60913L11.3555 5.6687C11.8242 4.59557 12.9755 3.99162 14.125 4.21558L15.1309 4.41187C16.7181 4.72113 18.3613 4.31591 19.623 3.30444L20.4238 2.66284Z" stroke="#111111" stroke-width="3"/>
</svg>
